<svg id="Filled" height="512" viewBox="0 0 512 512" width="512" xmlns="http://www.w3.org/2000/svg"><path d="m416 111.687-304 304-80-80 304-304c8-8 32-16 64 16s24 56 16 64z" fill="#fc9495"/><ellipse cx="72" cy="375.687" fill="#ea898a" rx="33.941" ry="56.569" transform="matrix(.707 -.707 .707 .707 -244.562 160.948)"/><path d="m424 263.687-176 176-80-80 176-176c8-8 32-16 64 16s24 56 16 64z" fill="#fdd14b"/><ellipse cx="208" cy="399.687" fill="#f0c647" rx="33.941" ry="56.569" transform="matrix(.707 -.707 .707 .707 -221.699 264.144)"/><path d="m480.845 400.531-344.845-344.844-80 80 344.845 344.844c8 8 32 16 64-16s24-56 16-64z" fill="#efdece"/><ellipse cx="96" cy="95.687" fill="#e2d2c2" rx="56.569" ry="33.941" transform="matrix(.707 -.707 .707 .707 -39.543 95.908)"/><path d="m42.343 405.343c19.3 19.3 36.542 25.468 49.987 25.468 11.719 0 20.55-4.69 25.327-9.468l35.663-35.663c1.712 12.36 8.633 27.273 25.023 43.663 19.3 19.3 36.542 25.468 49.987 25.468 11.719 0 20.55-4.69 25.327-9.468l50.343-50.343 91.188 91.188c6.07 6.07 15.339 9.494 25.353 9.494q2 0 4.028-.183c15.053-1.369 30.506-9.885 45.932-25.311s23.942-30.88 25.311-45.933c1.047-11.52-2.433-22.5-9.311-29.38l-91.188-91.188 34.344-34.344c6.877-6.877 10.358-17.86 9.31-29.381-1.368-15.052-9.884-30.506-25.31-45.932-16.391-16.391-31.3-23.312-43.663-25.024l51.663-51.663c10.258-10.257 20.114-39.2-16-75.313s-65.056-26.258-75.314-16l-106.343 106.343-82.343-82.343c-10.258-10.259-39.2-20.115-75.314 16s-26.258 65.056-16 75.313l82.344 82.344-106.344 106.343c-10.258 10.257-20.114 39.199 16 75.313zm183.381 33.376c-11.066-1.006-23.538-8.16-36.067-20.689s-19.684-25-20.69-36.068c-.946-10.408 3.741-15.67 4.69-16.619.863-.863 5.29-4.815 13.909-4.815.861 0 1.765.04 2.71.126 11.066 1.006 23.538 8.16 36.067 20.689s19.684 25 20.69 36.068c.946 10.408-3.741 15.67-4.69 16.619s-6.212 5.637-16.619 4.689zm36.956-25.026c-1.712-12.36-8.633-27.273-25.023-43.663s-31.3-23.312-43.663-25.024l30.006-30.006 68.687 68.687zm217.2 9.114c-1 11.066-8.16 23.538-20.689 36.068s-25 19.683-36.067 20.689c-10.412.948-15.671-3.74-16.62-4.689l-324.512-324.51c12.36-1.712 27.274-8.631 43.665-25.022s23.311-31.3 25.023-43.663l324.508 324.508c.949.949 5.636 6.212 4.689 16.619zm-113.6-238.153c11.066 1.006 23.538 8.16 36.067 20.689s19.684 25 20.69 36.068c.946 10.408-3.741 15.67-4.69 16.619l-34.347 34.343-68.687-68.686 34.344-34.344c.949-.943 6.208-5.636 16.619-4.689zm-24.623-147.311c.949-.949 6.207-5.638 16.619-4.689 11.066 1.006 23.538 8.16 36.067 20.689s19.684 25 20.69 36.068c.946 10.408-3.741 15.67-4.69 16.619l-106.343 106.343-68.687-68.686zm-284.69 76.068c1.006-11.066 8.16-23.538 20.69-36.068s25-19.683 36.067-20.689c.946-.086 1.849-.126 2.71-.126 8.618 0 13.046 3.952 13.909 4.815.949.949 5.636 6.211 4.69 16.619-1.006 11.066-8.16 23.538-20.69 36.068s-25 19.683-36.067 20.689c-10.412.947-15.67-3.74-16.619-4.689s-5.636-6.211-4.69-16.619zm155.72 190.276-86.007 86.006c-1.712-12.36-8.633-27.273-25.023-43.663s-31.3-23.312-43.663-25.024l86.006-86.006zm-161.121 32.841c.861 0 1.765.04 2.71.126 11.066 1.006 23.538 8.16 36.067 20.689s19.684 25 20.69 36.068c.946 10.408-3.741 15.67-4.69 16.619s-6.212 5.633-16.619 4.689c-11.066-1.006-23.538-8.16-36.067-20.689s-19.684-25-20.69-36.068c-.946-10.408 3.741-15.67 4.69-16.619.863-.863 5.29-4.815 13.909-4.815z"/><path d="m133.657 154.03a8 8 0 1 0 -11.314 11.313l32 32a8 8 0 1 0 11.314-11.313z"/><path d="m250.343 293.343a8 8 0 1 0 11.314-11.313l-72-72a8 8 0 0 0 -11.314 11.313z"/></svg>