<svg id="Capa_1" enable-background="new 0 0 512 512" height="512" viewBox="0 0 512 512" width="512" xmlns="http://www.w3.org/2000/svg"><g><path d="m38 15h436v326.25h-436z" fill="#54c466"/><path d="m256 15h218v326.25h-218z" fill="#009c68"/><path d="m23 0v356.25h30v-326.25h406v326.25h30v-356.25z" fill="#673351"/><g><path d="m92.355 390.333-42.693 121.667h67.367l42.694-121.667z" fill="#4a2239"/><path d="m419.645 390.333h-67.368l42.694 121.667h67.367z" fill="#301827"/></g><path d="m291.681 271.5h131.32v64h-131.32z" fill="#ffc000"/><g fill="#fff5f5"><path d="m128 74.67h256v30h-256z"/><path d="m128 138.67h256v30h-256z"/><path d="m128 202.67h163.68v30h-163.68z"/></g><path d="m256 202.67h35.68v30h-35.68z" fill="#efe2dd"/><path d="m256 74.67h128v30h-128z" fill="#efe2dd"/><path d="m256 138.67h128v30h-128z" fill="#efe2dd"/><path d="m489 0v356.25h-30v-326.25h-203v-30z" fill="#4a2239"/><path d="m0 330h512v64h-512z" fill="#87556b"/><path d="m256 330h256v64h-256z" fill="#673351"/></g></svg>